<?xml version="1.0" standalone="no"?>
<!DOCTYPE svg PUBLIC "-//W3C//DTD SVG 1.1//EN"
"http://www.w3.org/Graphics/SVG/1.1/DTD/svg11.dtd"> 
<svg width="12cm" height="12cm" viewBox="0 0 1024 1024"
xmlns="http://www.w3.org/2000/svg" version="1.1"> 
<defs>
<marker id="arrowhead" markerWidth="10" markerHeight="7"
refX="0" refY="3.5" orient="auto">
<polygon points="0 0, 10 3.5, 0 7" stroke="#f00" fill="red"/>
</marker>
</defs>
<line x1="100.000000" y1="100.000000" x2="174.944450" y2="390.488088" stroke="#f00"
stroke-width="3" marker-end="url(#arrowhead)" />
<defs>
<marker id="arrowhead" markerWidth="10" markerHeight="7"
refX="0" refY="3.5" orient="auto">
<polygon points="0 0, 10 3.5, 0 7" stroke="#f00" fill="red"/>
</marker>
</defs>
<line x1="916.082499" y1="907.788017" x2="784.500466" y2="638.184292" stroke="#f00"
stroke-width="3" marker-end="url(#arrowhead)" />
<line x1="100.000000" y1="100.000000" x2="106.266917" y2="124.246187" style="stroke:rgb(0,0,0);stroke-width:3" />  
<line x1="106.266917" y1="124.246187" x2="112.614743" y2="148.535529" style="stroke:rgb(0,0,0);stroke-width:3" />  
<line x1="112.614743" y1="148.535529" x2="119.067730" y2="172.690354" style="stroke:rgb(0,0,0);stroke-width:3" />  
<line x1="119.067730" y1="172.690354" x2="125.739289" y2="196.858893" style="stroke:rgb(0,0,0);stroke-width:3" />  
<line x1="125.739289" y1="196.858893" x2="132.688621" y2="220.965415" style="stroke:rgb(0,0,0);stroke-width:3" />  
<line x1="132.688621" y1="220.965415" x2="139.977924" y2="244.930366" style="stroke:rgb(0,0,0);stroke-width:3" />  
<line x1="139.977924" y1="244.930366" x2="147.706886" y2="268.772874" style="stroke:rgb(0,0,0);stroke-width:3" />  
<line x1="147.706886" y1="268.772874" x2="155.949603" y2="292.398164" style="stroke:rgb(0,0,0);stroke-width:3" />  
<line x1="155.949603" y1="292.398164" x2="164.823656" y2="315.802478" style="stroke:rgb(0,0,0);stroke-width:3" />  
<line x1="164.823656" y1="315.802478" x2="174.461829" y2="338.962618" style="stroke:rgb(0,0,0);stroke-width:3" />  
<line x1="174.461829" y1="338.962618" x2="184.971608" y2="361.741093" style="stroke:rgb(0,0,0);stroke-width:3" />  
<line x1="184.971608" y1="361.741093" x2="196.470073" y2="383.988142" style="stroke:rgb(0,0,0);stroke-width:3" />  
<line x1="196.470073" y1="383.988142" x2="209.135289" y2="405.622645" style="stroke:rgb(0,0,0);stroke-width:3" />  
<line x1="209.135289" y1="405.622645" x2="223.117085" y2="426.452950" style="stroke:rgb(0,0,0);stroke-width:3" />  
<line x1="223.117085" y1="426.452950" x2="238.519316" y2="446.199563" style="stroke:rgb(0,0,0);stroke-width:3" />  
<line x1="238.519316" y1="446.199563" x2="255.504732" y2="464.654307" style="stroke:rgb(0,0,0);stroke-width:3" />  
<line x1="255.504732" y1="464.654307" x2="274.038500" y2="481.421795" style="stroke:rgb(0,0,0);stroke-width:3" />  
<line x1="274.038500" y1="481.421795" x2="294.179834" y2="496.279638" style="stroke:rgb(0,0,0);stroke-width:3" />  
<line x1="294.179834" y1="496.279638" x2="315.786459" y2="508.970669" style="stroke:rgb(0,0,0);stroke-width:3" />  
<line x1="315.786459" y1="508.970669" x2="338.476338" y2="519.551573" style="stroke:rgb(0,0,0);stroke-width:3" />  
<line x1="338.476338" y1="519.551573" x2="361.907586" y2="528.323821" style="stroke:rgb(0,0,0);stroke-width:3" />  
<line x1="361.907586" y1="528.323821" x2="385.837677" y2="535.606974" style="stroke:rgb(0,0,0);stroke-width:3" />  
<line x1="385.837677" y1="535.606974" x2="410.145139" y2="541.711436" style="stroke:rgb(0,0,0);stroke-width:3" />  
<line x1="410.145139" y1="541.711436" x2="434.640408" y2="546.886865" style="stroke:rgb(0,0,0);stroke-width:3" />  
<line x1="434.640408" y1="546.886865" x2="459.253252" y2="551.376755" style="stroke:rgb(0,0,0);stroke-width:3" />  
<line x1="459.253252" y1="551.376755" x2="483.935271" y2="555.396718" style="stroke:rgb(0,0,0);stroke-width:3" />  
<line x1="483.935271" y1="555.396718" x2="508.653904" y2="559.142514" style="stroke:rgb(0,0,0);stroke-width:3" />  
<line x1="508.653904" y1="559.142514" x2="533.386875" y2="562.797479" style="stroke:rgb(0,0,0);stroke-width:3" />  
<line x1="533.386875" y1="562.797479" x2="558.116956" y2="566.539563" style="stroke:rgb(0,0,0);stroke-width:3" />  
<line x1="558.116956" y1="566.539563" x2="582.826868" y2="570.548181" style="stroke:rgb(0,0,0);stroke-width:3" />  
<line x1="582.826868" y1="570.548181" x2="607.494191" y2="575.011082" style="stroke:rgb(0,0,0);stroke-width:3" />  
<line x1="607.494191" y1="575.011082" x2="631.986289" y2="580.108975" style="stroke:rgb(0,0,0);stroke-width:3" />  
<line x1="631.986289" y1="580.108975" x2="656.359060" y2="586.083190" style="stroke:rgb(0,0,0);stroke-width:3" />  
<line x1="656.359060" y1="586.083190" x2="680.354792" y2="593.127479" style="stroke:rgb(0,0,0);stroke-width:3" />  
<line x1="680.354792" y1="593.127479" x2="703.408336" y2="602.434785" style="stroke:rgb(0,0,0);stroke-width:3" />  
<line x1="703.408336" y1="602.434785" x2="723.137285" y2="617.830343" style="stroke:rgb(0,0,0);stroke-width:3" />  
<line x1="723.137285" y1="617.830343" x2="741.817065" y2="634.577300" style="stroke:rgb(0,0,0);stroke-width:3" />  
<line x1="741.817065" y1="634.577300" x2="759.399133" y2="652.416956" style="stroke:rgb(0,0,0);stroke-width:3" />  
<line x1="759.399133" y1="652.416956" x2="775.981488" y2="671.207723" style="stroke:rgb(0,0,0);stroke-width:3" />  
<line x1="775.981488" y1="671.207723" x2="791.597446" y2="690.737050" style="stroke:rgb(0,0,0);stroke-width:3" />  
<line x1="791.597446" y1="690.737050" x2="806.399587" y2="710.948908" style="stroke:rgb(0,0,0);stroke-width:3" />  
<line x1="806.399587" y1="710.948908" x2="820.470552" y2="731.723902" style="stroke:rgb(0,0,0);stroke-width:3" />  
<line x1="820.470552" y1="731.723902" x2="833.834991" y2="752.861999" style="stroke:rgb(0,0,0);stroke-width:3" />  
<line x1="833.834991" y1="752.861999" x2="846.675000" y2="774.428944" style="stroke:rgb(0,0,0);stroke-width:3" />  
<line x1="846.675000" y1="774.428944" x2="859.004678" y2="796.239954" style="stroke:rgb(0,0,0);stroke-width:3" />  
<line x1="859.004678" y1="796.239954" x2="870.938599" y2="818.293908" style="stroke:rgb(0,0,0);stroke-width:3" />  
<line x1="870.938599" y1="818.293908" x2="882.535230" y2="840.506337" style="stroke:rgb(0,0,0);stroke-width:3" />  
<line x1="882.535230" y1="840.506337" x2="893.898236" y2="862.891885" style="stroke:rgb(0,0,0);stroke-width:3" />  
<line x1="893.898236" y1="862.891885" x2="905.032127" y2="885.279618" style="stroke:rgb(0,0,0);stroke-width:3" />  
<line x1="905.032127" y1="885.279618" x2="916.082499" y2="907.788017" style="stroke:rgb(0,0,0);stroke-width:3" />  
<circle cx="100.000000" cy="100.000000" r="7" stroke="none" fill="black" />  
<circle cx="106.266917" cy="124.246187" r="7" stroke="none" fill="black" />  
<circle cx="112.614743" cy="148.535529" r="7" stroke="none" fill="black" />  
<circle cx="119.067730" cy="172.690354" r="7" stroke="none" fill="black" />  
<circle cx="125.739289" cy="196.858893" r="7" stroke="none" fill="black" />  
<circle cx="132.688621" cy="220.965415" r="7" stroke="none" fill="black" />  
<circle cx="139.977924" cy="244.930366" r="7" stroke="none" fill="black" />  
<circle cx="147.706886" cy="268.772874" r="7" stroke="none" fill="black" />  
<circle cx="155.949603" cy="292.398164" r="7" stroke="none" fill="black" />  
<circle cx="164.823656" cy="315.802478" r="7" stroke="none" fill="black" />  
<circle cx="174.461829" cy="338.962618" r="7" stroke="none" fill="black" />  
<circle cx="184.971608" cy="361.741093" r="7" stroke="none" fill="black" />  
<circle cx="196.470073" cy="383.988142" r="7" stroke="none" fill="black" />  
<circle cx="209.135289" cy="405.622645" r="7" stroke="none" fill="black" />  
<circle cx="223.117085" cy="426.452950" r="7" stroke="none" fill="black" />  
<circle cx="238.519316" cy="446.199563" r="7" stroke="none" fill="black" />  
<circle cx="255.504732" cy="464.654307" r="7" stroke="none" fill="black" />  
<circle cx="274.038500" cy="481.421795" r="7" stroke="none" fill="black" />  
<circle cx="294.179834" cy="496.279638" r="7" stroke="none" fill="black" />  
<circle cx="315.786459" cy="508.970669" r="7" stroke="none" fill="black" />  
<circle cx="338.476338" cy="519.551573" r="7" stroke="none" fill="black" />  
<circle cx="361.907586" cy="528.323821" r="7" stroke="none" fill="black" />  
<circle cx="385.837677" cy="535.606974" r="7" stroke="none" fill="black" />  
<circle cx="410.145139" cy="541.711436" r="7" stroke="none" fill="black" />  
<circle cx="434.640408" cy="546.886865" r="7" stroke="none" fill="black" />  
<circle cx="459.253252" cy="551.376755" r="7" stroke="none" fill="black" />  
<circle cx="483.935271" cy="555.396718" r="7" stroke="none" fill="black" />  
<circle cx="508.653904" cy="559.142514" r="7" stroke="none" fill="black" />  
<circle cx="533.386875" cy="562.797479" r="7" stroke="none" fill="black" />  
<circle cx="558.116956" cy="566.539563" r="7" stroke="none" fill="black" />  
<circle cx="582.826868" cy="570.548181" r="7" stroke="none" fill="black" />  
<circle cx="607.494191" cy="575.011082" r="7" stroke="none" fill="black" />  
<circle cx="631.986289" cy="580.108975" r="7" stroke="none" fill="black" />  
<circle cx="656.359060" cy="586.083190" r="7" stroke="none" fill="black" />  
<circle cx="680.354792" cy="593.127479" r="7" stroke="none" fill="black" />  
<circle cx="703.408336" cy="602.434785" r="7" stroke="none" fill="black" />  
<circle cx="723.137285" cy="617.830343" r="7" stroke="none" fill="black" />  
<circle cx="741.817065" cy="634.577300" r="7" stroke="none" fill="black" />  
<circle cx="759.399133" cy="652.416956" r="7" stroke="none" fill="black" />  
<circle cx="775.981488" cy="671.207723" r="7" stroke="none" fill="black" />  
<circle cx="791.597446" cy="690.737050" r="7" stroke="none" fill="black" />  
<circle cx="806.399587" cy="710.948908" r="7" stroke="none" fill="black" />  
<circle cx="820.470552" cy="731.723902" r="7" stroke="none" fill="black" />  
<circle cx="833.834991" cy="752.861999" r="7" stroke="none" fill="black" />  
<circle cx="846.675000" cy="774.428944" r="7" stroke="none" fill="black" />  
<circle cx="859.004678" cy="796.239954" r="7" stroke="none" fill="black" />  
<circle cx="870.938599" cy="818.293908" r="7" stroke="none" fill="black" />  
<circle cx="882.535230" cy="840.506337" r="7" stroke="none" fill="black" />  
<circle cx="893.898236" cy="862.891885" r="7" stroke="none" fill="black" />  
<circle cx="905.032127" cy="885.279618" r="7" stroke="none" fill="black" />  
<circle cx="916.082499" cy="907.788017" r="7" stroke="none" fill="black" />  
</svg>
